
<?xml version="1.0" encoding="UTF-8"?>
<!DOCTYPE svg PUBLIC "-//W3C//DTD SVG 1.1//EN" "http://www.w3.org/Graphics/SVG/1.1/DTD/svg11.dtd">
<svg xmlns="http://www.w3.org/2000/svg" version="1.1" width="1200px" height="1200px" style="shape-rendering:geometricPrecision; text-rendering:geometricPrecision; image-rendering:optimizeQuality; fill-rule:evenodd; clip-rule:evenodd" xmlns:xlink="http://www.w3.org/1999/xlink">
<g><path style="opacity:1" fill="#2d498f" d="M -0.5,-0.5 C 399.5,-0.5 799.5,-0.5 1199.5,-0.5C 1199.5,173.167 1199.5,346.833 1199.5,520.5C 1159.37,480.868 1119.37,441.035 1079.5,401C 1073.34,396.833 1067.01,396.499 1060.5,400C 1018.03,441.472 975.861,483.306 934,525.5C 928.818,532.349 928.151,539.682 932,547.5C 965.368,580.701 998.535,614.035 1031.5,647.5C 890.001,648.5 748.334,648.833 606.5,648.5C 603.035,617.05 588.035,592.883 561.5,576C 515.867,553.195 475.701,560.362 441,597.5C 431.992,609.518 425.659,622.851 422,637.5C 421.501,641.152 421.335,644.818 421.5,648.5C 405.163,648.333 388.83,648.5 372.5,649C 351.747,652.753 339.247,664.92 335,685.5C 334.5,856.833 334.333,1028.17 334.5,1199.5C 222.833,1199.5 111.167,1199.5 -0.5,1199.5C -0.5,799.5 -0.5,399.5 -0.5,-0.5 Z"/></g>
<g><path style="opacity:1" fill="#f7f6f1" d="M 307.5,160.5 C 300.798,160.664 294.131,160.331 287.5,159.5C 276.271,156.434 269.771,149.101 268,137.5C 266.116,114.383 276.783,102.717 300,102.5C 323.093,102.924 333.426,114.591 331,137.5C 328.579,150.755 320.746,158.422 307.5,160.5 Z"/></g>
<g><path style="opacity:1" fill="#f7f6f0" d="M 67.5,112.5 C 122.168,112.333 176.834,112.5 231.5,113C 232,113.5 232.5,114 233,114.5C 233.386,135.856 234.22,157.189 235.5,178.5C 233.396,178.799 231.396,178.466 229.5,177.5C 224.117,159.557 214.783,144.057 201.5,131C 185.084,121.733 167.417,118.066 148.5,120C 147.338,153.762 147.171,187.595 148,221.5C 178.531,225.486 196.031,212.153 200.5,181.5C 202.5,181.5 204.5,181.5 206.5,181.5C 206.5,212.5 206.5,243.5 206.5,274.5C 204.396,274.799 202.396,274.466 200.5,273.5C 198.616,259.232 192.616,247.066 182.5,237C 171.932,231.155 160.598,229.155 148.5,231C 147.338,262.762 147.171,294.595 148,326.5C 160.758,327.323 173.591,327.823 186.5,328C 187.576,329.726 187.743,331.559 187,333.5C 147.238,334.663 107.404,334.83 67.5,334C 66.5769,331.959 66.2436,329.792 66.5,327.5C 72.8333,327.5 79.1667,327.5 85.5,327.5C 85.5,258.167 85.5,188.833 85.5,119.5C 79.4908,119.666 73.4908,119.499 67.5,119C 66.232,116.837 66.232,114.67 67.5,112.5 Z"/></g>
<g><path style="opacity:1" fill="#f7f5f0" d="M 469.5,162.5 C 467.981,165.526 467.315,168.859 467.5,172.5C 467.503,175.025 467.837,177.359 468.5,179.5C 469.323,182.977 469.823,186.644 470,190.5C 495.953,208.726 501.62,232.059 487,260.5C 476.159,274.976 461.659,283.142 443.5,285C 429.755,285.782 416.089,285.449 402.5,284C 398.084,286.412 394.251,289.578 391,293.5C 389.86,296.528 390.694,298.695 393.5,300C 414.5,300.333 435.5,300.667 456.5,301C 469.301,302.617 481.634,305.95 493.5,311C 508.417,320.499 515.417,334.166 514.5,352C 514.555,377.223 502.889,394.556 479.5,404C 469.16,407.918 458.494,410.585 447.5,412C 433.171,412.5 418.837,412.667 404.5,412.5C 400.081,411.028 395.414,410.362 390.5,410.5C 379.537,409.457 369.203,406.291 359.5,401C 346.341,391.543 343.508,379.71 351,365.5C 360.874,353.246 372.374,351.412 385.5,360C 388.64,361 389.973,363.167 389.5,366.5C 387.505,372.434 387.171,378.434 388.5,384.5C 391.532,397.024 399.532,404.191 412.5,406C 428.913,407.885 444.913,406.219 460.5,401C 475.821,393.525 481.988,381.358 479,364.5C 474.313,357.735 467.813,353.901 459.5,353C 438.833,352.667 418.167,352.333 397.5,352C 385.325,351.157 374.825,346.657 366,338.5C 358.672,327.205 358.672,315.871 366,304.5C 374.533,295.503 384.033,287.836 394.5,281.5C 388.101,278.303 381.768,274.803 375.5,271C 369.098,265.031 364.598,257.864 362,249.5C 355.373,210.6 371.54,187.767 410.5,181C 428.634,177.463 445.968,179.63 462.5,187.5C 462.552,179.231 462.719,170.897 463,162.5C 470.25,141.958 484.417,134.791 505.5,141C 517.411,147.368 521.578,157.201 518,170.5C 512.951,180.53 504.784,184.697 493.5,183C 484.569,180.275 480.903,174.442 482.5,165.5C 484.336,164.081 486.336,162.914 488.5,162C 490.421,155.563 487.921,152.063 481,151.5C 474.718,152.616 470.885,156.282 469.5,162.5 Z"/></g>
<g><path style="opacity:1" fill="#a4aec8" d="M 287.5,159.5 C 294.131,160.331 300.798,160.664 307.5,160.5C 304.854,161.164 302.021,161.498 299,161.5C 294.867,161.714 291.034,161.048 287.5,159.5 Z"/></g>
<g><path style="opacity:1" fill="#aab3cb" d="M 469.5,162.5 C 468.708,168.13 468.375,173.797 468.5,179.5C 467.837,177.359 467.503,175.025 467.5,172.5C 467.315,168.859 467.981,165.526 469.5,162.5 Z"/></g>
<g><path style="opacity:1" fill="#f7f5f0" d="M 596.5,337.5 C 587.467,337.716 578.467,337.383 569.5,336.5C 565.311,336.572 561.311,335.739 557.5,334C 551.735,331.302 545.902,328.802 540,326.5C 534.468,328.527 530.301,332.194 527.5,337.5C 526.28,338.711 525.113,338.711 524,337.5C 523.5,318.836 523.333,300.17 523.5,281.5C 525.144,281.286 526.644,281.62 528,282.5C 540.915,326.68 568.748,340.514 611.5,324C 618.481,314.958 618.147,306.291 610.5,298C 606.317,295.743 601.984,293.743 597.5,292C 583.291,288.282 569.291,283.949 555.5,279C 526.588,264.977 517.088,242.477 527,211.5C 534.776,194.405 547.942,183.905 566.5,180C 574.5,179.333 582.5,179.333 590.5,180C 600.358,182.379 610.025,185.212 619.5,188.5C 621.167,188.333 622.833,188.167 624.5,188C 627.317,185.362 629.65,182.362 631.5,179C 632.448,178.517 633.448,178.351 634.5,178.5C 634.5,194.833 634.5,211.167 634.5,227.5C 633.178,227.67 632.011,227.337 631,226.5C 626.208,214.376 619.042,203.876 609.5,195C 597.32,186.921 583.987,184.255 569.5,187C 556.912,188.902 551.079,196.069 552,208.5C 555.448,215.478 560.948,219.978 568.5,222C 585.949,226.483 602.949,232.15 619.5,239C 639.087,251.014 647.253,268.514 644,291.5C 639.879,318.786 624.046,334.119 596.5,337.5 Z"/></g>
<g><path style="opacity:1" fill="#f9f7f1" d="M 268.5,328.5 C 269.833,305.676 270.5,282.51 270.5,259C 270.5,235.664 270.167,212.498 269.5,189.5C 263.256,188.542 256.923,188.209 250.5,188.5C 250.5,186.833 250.5,185.167 250.5,183.5C 276.5,183.5 302.5,183.5 328.5,183.5C 328.5,231.833 328.5,280.167 328.5,328.5C 334.5,328.5 340.5,328.5 346.5,328.5C 346.739,330.467 346.406,332.301 345.5,334C 314.502,334.5 283.502,334.667 252.5,334.5C 252.5,332.5 252.5,330.5 252.5,328.5C 257.833,328.5 263.167,328.5 268.5,328.5 Z"/></g>
<g><path style="opacity:1" fill="#314b90" d="M 414.5,261.5 C 413.604,244.185 413.271,226.852 413.5,209.5C 413.335,200.673 416.335,193.173 422.5,187C 431.63,183.983 437.464,187.15 440,196.5C 442.998,218.085 443.331,239.752 441,261.5C 440.64,268.96 437.473,274.793 431.5,279C 426.563,280.369 422.396,279.203 419,275.5C 416.591,271.108 415.091,266.442 414.5,261.5 Z"/></g>
<g><path style="opacity:1" fill="#c6ccd9" d="M 269.5,189.5 C 270.167,212.498 270.5,235.664 270.5,259C 270.5,282.51 269.833,305.676 268.5,328.5C 269.495,282.239 269.828,235.905 269.5,189.5 Z"/></g>
<g><path style="opacity:1" fill="#97a3c2" d="M 413.5,209.5 C 413.271,226.852 413.604,244.185 414.5,261.5C 413.698,260.048 413.198,258.382 413,256.5C 412.172,240.661 412.339,224.995 413.5,209.5 Z"/></g>
<g><path style="opacity:1" fill="#94a0c0" d="M 569.5,336.5 C 578.467,337.383 587.467,337.716 596.5,337.5C 588.677,338.656 580.677,338.823 572.5,338C 571.263,337.768 570.263,337.268 569.5,336.5 Z"/></g>
<g><path style="opacity:1" fill="#f9f7f1" d="M 668.5,362.5 C 744.167,362.333 819.834,362.5 895.5,363C 902.903,365.639 905.737,370.806 904,378.5C 868.064,445.373 832.397,512.373 797,579.5C 789.713,587.492 782.38,587.492 775,579.5C 738.079,510.659 701.412,441.659 665,372.5C 663.756,368.191 664.923,364.858 668.5,362.5 Z"/></g>
<g><path style="opacity:1" fill="#6073a7" d="M 389.5,366.5 C 389.034,372.491 388.701,378.491 388.5,384.5C 387.171,378.434 387.505,372.434 389.5,366.5 Z"/></g>
<g><path style="opacity:1" fill="#f8f6f1" d="M 1199.5,520.5 C 1199.5,538.833 1199.5,557.167 1199.5,575.5C 1175.17,599.5 1150.83,623.5 1126.5,647.5C 1125.96,647.56 1125.62,647.893 1125.5,648.5C 1150.16,649.5 1174.82,649.833 1199.5,649.5C 1199.5,654.167 1199.5,658.833 1199.5,663.5C 923.166,663.333 646.833,663.5 370.5,664C 360.756,667.41 353.923,673.91 350,683.5C 349.5,855.5 349.333,1027.5 349.5,1199.5C 344.5,1199.5 339.5,1199.5 334.5,1199.5C 334.333,1028.17 334.5,856.833 335,685.5C 339.247,664.92 351.747,652.753 372.5,649C 388.83,648.5 405.163,648.333 421.5,648.5C 421.335,644.818 421.501,641.152 422,637.5C 425.659,622.851 431.992,609.518 441,597.5C 475.701,560.362 515.867,553.195 561.5,576C 588.035,592.883 603.035,617.05 606.5,648.5C 748.334,649.833 890.334,649.833 1032.5,648.5C 1032.38,647.893 1032.04,647.56 1031.5,647.5C 998.535,614.035 965.368,580.701 932,547.5C 928.151,539.682 928.818,532.349 934,525.5C 975.861,483.306 1018.03,441.472 1060.5,400C 1067.01,396.499 1073.34,396.833 1079.5,401C 1119.37,441.035 1159.37,480.868 1199.5,520.5 Z"/></g>
<g><path style="opacity:1" fill="#b7bed1" d="M 390.5,410.5 C 395.414,410.362 400.081,411.028 404.5,412.5C 399.586,412.638 394.919,411.972 390.5,410.5 Z"/></g>
<g><path style="opacity:1" fill="#2d498f" d="M 1199.5,575.5 C 1199.5,599.833 1199.5,624.167 1199.5,648.5C 1174.99,648.831 1150.66,648.498 1126.5,647.5C 1150.83,623.5 1175.17,599.5 1199.5,575.5 Z"/></g>
<g><path style="opacity:1" fill="#93a0c0" d="M 1031.5,647.5 C 1032.04,647.56 1032.38,647.893 1032.5,648.5C 890.334,649.833 748.334,649.833 606.5,648.5C 748.334,648.833 890.001,648.5 1031.5,647.5 Z"/></g>
<g><path style="opacity:1" fill="#929fc0" d="M 1126.5,647.5 C 1150.66,648.498 1174.99,648.831 1199.5,648.5C 1199.5,648.833 1199.5,649.167 1199.5,649.5C 1174.82,649.833 1150.16,649.5 1125.5,648.5C 1125.62,647.893 1125.96,647.56 1126.5,647.5 Z"/></g>
<g><path style="opacity:1" fill="#2d498f" d="M 1199.5,663.5 C 1199.5,842.167 1199.5,1020.83 1199.5,1199.5C 916.167,1199.5 632.833,1199.5 349.5,1199.5C 349.333,1027.5 349.5,855.5 350,683.5C 353.923,673.91 360.756,667.41 370.5,664C 646.833,663.5 923.166,663.333 1199.5,663.5 Z"/></g>
<g><path style="opacity:1" fill="#f9f7f1" d="M 498.5,835.5 C 563.829,832.718 607.996,861.718 631,922.5C 643.29,971.854 631.124,1014.02 594.5,1049C 551.002,1083.2 504.336,1088.2 454.5,1064C 408.489,1035.4 387.989,993.896 393,939.5C 405.239,881.427 440.405,846.76 498.5,835.5 Z"/></g>
<g><path style="opacity:1" fill="#f9f7f1" d="M 983.5,849.5 C 1045.5,849.333 1107.5,849.5 1169.5,850C 1175.03,851.526 1178.53,855.026 1180,860.5C 1180.67,927.5 1180.67,994.5 1180,1061.5C 1177.51,1067.66 1173.01,1071.16 1166.5,1072C 1105.83,1072.67 1045.17,1072.67 984.5,1072C 979.09,1070.26 975.256,1066.76 973,1061.5C 972.333,994.167 972.333,926.833 973,859.5C 975.081,854.584 978.581,851.25 983.5,849.5 Z"/></g>
<g><path style="opacity:1" fill="#f8f6f1" d="M 782.5,850.5 C 789.485,850.076 794.985,852.743 799,858.5C 833.079,922.992 867.412,987.325 902,1051.5C 905.027,1061.61 901.527,1068.45 891.5,1072C 821.167,1072.67 750.833,1072.67 680.5,1072C 670.108,1067.7 666.942,1060.2 671,1049.5C 705.333,985.5 739.667,921.5 774,857.5C 776.441,854.546 779.275,852.213 782.5,850.5 Z"/></g>
</svg>
